PathFileType	4	(X/Y/Z)	Patient4_TMGait_0pt6_02_left_11.trc.trc
DataRate	CameraRate	NumFrames	NumMarkers	Units	OrigDataRate	OrigDataStartFrame	OrigNumFrames
85.889570552147	85.889570552147	7	33	mm	85.889570552147	1	       141
Frame#	Time	Sacral			L.Shoulder			Chest			R.Shoulder			Neck			R.ASIS			L.ASIS			R.Thigh.Superior			R.Thigh.Lateral			R.Thigh.Inferior			R.Patella			L.Thigh.Superior			L.Thigh.Lateral			L.Thigh.Inferior			L.Patella			L.Shank.Superior			L.Shank.Lateral			L.Shank.Inferior			R.Shank.Superior			R.Shank.Lateral			R.Shank.Inferior			R.Heel			R.Midfoot.Superior			R.Midfoot.Lateral			R.Toe			L.Heel			L.Midfoot.Lateral			L.Midfoot.Superior			L.Toe			L.Elbow			L.Wrist			R.Elbow			R.Wrist			
		X1	Y1	Z1	X2	Y2	Z2	X3	Y3	Z3	X4	Y4	Z4	X5	Y5	Z5	X6	Y6	Z6	X7	Y7	Z7	X8	Y8	Z8	X9	Y9	Z9	X10	Y10	Z10	X11	Y11	Z11	X12	Y12	Z12	X13	Y13	Z13	X14	Y14	Z14	X15	Y15	Z15	X16	Y16	Z16	X17	Y17	Z17	X18	Y18	Z18	X19	Y19	Z19	X20	Y20	Z20	X21	Y21	Z21	X22	Y22	Z22	X23	Y23	Z23	X24	Y24	Z24	X25	Y25	Z25	X26	Y26	Z26	X27	Y27	Z27	X28	Y28	Z28	X29	Y29	Z29	X30	Y30	Z30	X31	Y31	Z31	X32	Y32	Z32	X33	Y33	Z33	

1	13.570000000000	689.303111627086	1008.540615170086	490.049944820297	844.354110832159	1435.156629445398	291.557299755586	963.964670518512	1369.352328235830	441.994611564440	896.474077187494	1446.404882586063	621.311242366367	857.082725700067	1497.084595582916	441.259599039945	923.749669998680	945.436438064794	590.573284348572	890.714492411982	963.318679887629	316.624213035443	953.252956945007	738.413964315861	557.930450405792	867.468883023971	631.843968466517	616.958062517460	937.531041183960	578.330401034882	532.502219938458	932.418772570658	490.981092777686	534.843905495795	983.071129375536	798.635663991374	349.162662057301	952.753608917243	669.038886010400	268.682525190055	1062.755422369013	615.795007722589	327.363984786683	1085.695131508357	527.453281254184	318.417831639196	1027.704836066738	452.991291305144	312.498058847008	892.537844070233	390.700525985812	266.403265983941	901.043706265966	259.942866916712	320.522102461120	904.004702293772	402.827315750303	540.545851053711	832.800206582881	298.352707192435	599.741421554654	872.387735176274	205.280230156773	532.518098010385	737.300944525165	41.045162240001	497.520957027347	907.665969608347	95.918797799679	533.493857831546	820.166569246643	36.105731660640	572.993202706178	1028.446951028366	43.341998055086	563.008067081476	722.888152890819	175.506348898610	362.550191898013	781.680545716940	129.066211214339	283.435426689040	886.424690042816	147.399306434137	300.403415305170	972.755850703632	39.561365618890	277.785674003476	720.612364181946	1102.073760344850	192.296295417029	709.066116085196	842.308026109255	174.703917726592	964.880962374546	1120.289131711376	771.223974625257	1192.691343487281	1025.952401865570	697.695541023614	
2	13.581642857143	688.070331104346	1009.128756661096	490.773536840559	843.526281978547	1435.697934478003	293.010946369504	963.684071797346	1369.075280248750	442.607261707982	897.618998678611	1445.839817102005	622.438483226254	857.070104516312	1497.149778507929	442.863029559643	922.469800415909	945.202754053556	590.156767910220	888.973016576847	963.605658907333	316.627425169658	949.939403232669	737.782131849814	557.611914720837	863.477482620868	631.799707820008	617.170174704863	932.869791909451	577.618349831014	532.668415288514	927.015603862827	490.493236403944	535.117398192788	981.239750024962	799.685015714830	349.300309561966	951.799768336887	669.733351515204	268.904179375897	1061.385300164215	616.972603039169	328.236709000035	1085.381659639790	530.250556186701	319.055568018526	1031.509617925268	454.965379390475	312.493016955997	901.484535813189	384.383607931708	266.805544399871	919.583765446203	254.977777127298	319.832366898069	898.316033693553	402.593830864356	540.733388237286	826.566008821728	298.401110541309	599.892820354214	865.593966313548	205.113023206930	532.598153308950	729.975777736822	41.095344678102	497.518169750624	900.355650357733	95.857539495459	533.599202748883	812.786061963849	36.134431872381	573.057193010834	1021.069473410728	43.079911741391	563.122848349134	749.859610220210	157.852744967933	362.833690596039	810.293638438737	117.354681131385	282.507831878283	912.733626123034	143.044714309966	298.802641960606	1005.739340265976	43.139792673343	273.711793752418	716.926357424026	1103.518414646012	194.887533652407	705.837697791658	843.491370133246	178.108524406944	970.375723112904	1119.714461882275	769.373360075991	1199.398282256163	1033.161127955063	692.443083655286	
3	13.593285714286	686.863887248416	1009.681183274397	491.473048821258	842.731413847060	1436.215654778998	294.432434548593	963.412256676772	1368.778543256851	443.208861590048	898.724375094219	1445.252816812348	623.542397414850	857.064895587949	1497.189424475733	444.435716787867	921.221673302774	944.949641187437	589.763530913403	887.264501828576	963.853046225397	316.610185582874	946.698526028548	737.147621271721	557.317528424959	859.565233850336	631.742154391129	617.373277891833	928.306387875132	576.909035490514	532.835925011574	921.719372747061	489.998415580477	535.382564785558	979.357018251866	800.572917584705	349.389194302548	950.688863302087	670.282187717257	269.081958319197	1059.814228273693	617.941699537329	329.118294819468	1084.869973677392	532.897288520232	319.705821223197	1035.112166669532	456.870689351304	312.528465877753	910.416053100465	378.116190231293	267.111347763453	937.951276882718	250.225719320660	319.184739239626	892.723355119206	402.344299992646	540.908807282145	820.432699632626	298.438942539183	600.032873554183	858.904040138891	204.938699758474	532.671232574061	722.735253599305	41.146001176570	497.517436235322	893.134547484032	95.797174196941	533.701292807680	805.494457663736	36.161021963791	573.117304612232	1013.781210975537	42.822293660048	563.235011240877	776.764786675709	140.664837098911	362.987070936915	838.855815440389	106.037053631295	281.583986419782	938.861966749692	138.985806905482	297.322468660076	1038.392761243770	47.041149346512	270.020724423335	713.337568853237	1104.923029570106	197.425796345124	702.762683174547	844.632061949238	181.452972397642	975.772253235822	1119.115313759492	767.499913732680	1205.931982022345	1040.201493622139	687.234853375487	
4	13.604928571429	685.706228361851	1010.159261646382	492.123564880905	841.993507098689	1436.682792827014	295.786225786787	963.152306079648	1368.440979127793	443.782700451290	899.750294561100	1444.621703520850	624.595567939567	857.070122233311	1497.177745474534	445.941733581703	920.034547129724	944.656893045737	589.403379933881	885.616326114878	964.024841085594	316.549654043114	943.589469910965	736.501582145969	557.056661103397	855.788771828146	631.655040010865	617.551080660178	923.904688683282	576.198968010693	532.994384072338	916.595783101853	489.482170059809	535.621183565877	977.368810167039	801.149871667752	349.377378278415	949.259697027872	670.547529242420	269.178149077784	1057.859868670135	618.514942895168	329.990056909170	1083.973496234395	535.261340470947	320.370655431169	1038.326673365640	458.653799468384	312.630166178517	919.315584356003	371.957560309689	267.256766132469	956.000723280346	245.911297941233	318.622061700214	887.274934368942	402.057541312336	541.052449311810	814.447174000293	298.457355181843	600.147159764136	852.356836247266	204.748843930207	532.726722051932	715.591170965752	41.199149638170	497.520505806315	886.019865178239	95.739205817312	533.797370985258	798.307326784322	36.183985066422	573.168331470602	1006.598463112972	42.572109085518	563.342392316913	803.576485476388	124.405566843823	362.935340695560	867.338396484154	95.513758712381	280.696312370006	964.657099679517	135.534246960258	296.078147756537	1070.416047563024	51.611846026020	267.041307022460	709.949568803714	1106.236003272164	199.850286619173	700.025694344050	845.676073472614	184.679107820280	980.983253996113	1118.461495123931	765.553163854437	1212.131686938693	1046.920670583315	682.067293874694	
5	13.616571428571	684.614762302673	1010.530037016075	492.705403498864	841.329791548159	1437.075680653798	297.040995114744	962.905089878515	1368.045416364961	444.312992450927	900.665308657246	1443.929641809069	625.573454188009	857.086704676496	1497.094303105324	447.348889111029	918.931596850229	944.309826178075	589.075571135666	884.048841041495	964.092700067968	316.429478226244	940.658566633687	735.835791504587	556.829410817312	852.189739502927	631.524221468830	617.687488974160	919.707280623297	575.483302472993	533.129697693198	911.686287567280	488.930426140152	535.813924062083	975.231019781368	801.298009185032	349.225395370774	947.388217317343	670.426708030466	269.155306857666	1055.390517326483	618.555537123010	330.824287791341	1082.552392481863	537.246939545552	321.051856016544	1041.013111248312	460.281500755721	312.815834043217	928.165818477731	365.979116685737	267.200484949663	973.603718315057	242.233985533934	318.181344407232	881.998497153420	401.716718853680	541.146159843576	808.632983390966	298.449502938647	600.222929395382	845.965045274772	204.535768724447	532.754234668103	708.534191325869	41.255482646081	497.528195941824	879.005459252053	95.684480344517	533.884464193292	791.217013180070	36.202026406533	573.205692494605	999.514811468795	42.331729084888	563.443664258925	830.248252578877	109.475926912488	362.632405684015	895.697291839692	86.131244673815	279.884093986565	989.978887478877	132.960898422783	295.165945825072	1101.548049975562	57.142474166145	265.042290128225	706.849725649753	1107.410600607609	202.106663573344	697.784945071565	846.575059101907	187.738582857390	985.939232276151	1117.728408126344	763.486138967437	1217.871834075934	1053.198284660911	676.925922916935	
6	13.628214285714	683.601748693375	1010.769447350896	493.204404091806	840.749152132514	1437.375605487385	298.170024991605	962.669182015311	1367.581428172808	444.784832867137	901.447622587571	1443.168756334921	626.454535939662	857.112825719899	1496.926485894296	448.628719205752	917.929843766274	943.901043676723	588.770251849664	882.576384609322	964.039461880883	316.241646767213	937.938289213210	735.144050254993	556.626329729289	848.795759683613	631.339376643242	617.767542962618	915.736600023127	574.757152597471	533.224341917771	907.010715528593	488.331740159420	535.941463656413	972.920715164492	800.946544649819	348.910749924407	945.006874003817	669.865349952313	268.982631536821	1052.348710533640	617.994962412022	331.583768652378	1080.534100917202	538.801670036986	321.747829741216	1043.088436327649	461.740533975437	313.090400871853	936.927126971701	360.267480144167	266.933153476026	990.625233946865	239.349239380784	317.889472824753	876.905470913766	401.311442108439	541.174563309244	802.995999799034	298.411679973422	600.250235145640	839.722570669588	204.294004217156	532.744647946860	701.543929796890	41.314915795577	497.540538327477	872.072060819283	95.633359272881	533.959591848927	784.203023485736	36.214344343620	573.225783045414	992.511232238502	42.102895085179	563.538170516619	856.661533070252	96.195327235261	362.074508052910	923.811266048452	78.156523800344	279.193133593764	1014.658452013758	131.465025535896	294.651135451750	1131.526319304274	63.815946496218	264.193664301968	704.106398858739	1108.406596443271	204.147730306765	696.162085509313	847.289028206805	190.591360726898	990.585813194983	1116.900883707577	761.263182829251	1223.063957840537	1058.947119257466	671.794419815584	
7	13.639857142857	682.674801399852	1010.864177105224	493.611351001189	840.251231295396	1437.569755154151	299.151355248737	962.440851051835	1367.046796181990	445.184051166703	902.084890630888	1442.341850749332	627.220265258356	857.143528146799	1496.670511085312	449.756348083442	917.040638022321	943.430441501218	588.471641873384	881.208924989456	963.861039924599	315.986224593951	935.446623788245	734.422703108199	556.429909572356	845.621301957903	631.094962736763	617.778215092105	911.997045676656	574.016633708817	533.258711579052	902.570559751200	487.678708771379	535.985809795558	970.443827812421	800.080461070211	348.428829980024	942.113202642368	668.861310313364	268.643865901484	1048.761109838493	616.838586570167	332.223701447101	1077.921681907734	539.916065430106	322.450517520249	1044.529011622581	463.033093543779	313.442819388226	945.521752415645	354.918507216789	266.482648833155	1006.909857404109	237.351251713779	317.759922247310	871.994337078048	400.838288097153	541.125936851435	797.528876908809	298.343960126084	600.222474376770	833.610849155815	204.021400958248	532.691003129222	694.595914394229	41.377565576031	497.557086144567	865.194713848334	95.585991240814	534.020064341894	777.239608565558	36.220936710812	573.226265419771	985.563339327794	41.886594150297	563.625629165468	882.598773333887	84.783247527701	361.308617783388	951.445069146076	71.755462747614	278.673709851814	1038.473477938665	131.149359330223	294.559220719667	1160.061405563944	71.671334945204	264.536887069725	701.767968760878	1109.191210091361	205.933976527533	695.238320054364	847.787966021277	193.204075293691	994.880687588537	1115.974789993773	758.864257681619	1227.654315203699	1064.110983367199	666.660501756285	
